<svg width="56.484375" height="18.234375" viewBox="0 0 56.4844 18.2344" fill="none" xmlns="http://www.w3.org/2000/svg" xmlns:xlink="http://www.w3.org/1999/xlink">
	<desc>
			Created with Pixso.
	</desc>
	<defs/>
	<path id="Abito" d="M27.49 16.52Q28.79 14.82 28.79 11.77L28.79 11.58Q28.79 8.49 27.47 6.79Q26.93 6.09 26.24 5.68Q25.21 5.08 23.83 5.08Q22.72 5.08 21.86 5.54Q21.24 5.88 20.75 6.45L20.75 0L17.36 0L17.36 18L20.41 18L20.56 16.65Q21.13 17.38 21.88 17.77Q22.75 18.23 23.85 18.23Q25.27 18.23 26.3 17.6Q26.97 17.2 27.49 16.52ZM31.04 1.2Q30.85 1.56 30.85 2.03Q30.85 2.51 31.05 2.88Q31.17 3.11 31.37 3.3Q31.47 3.39 31.59 3.47Q32.06 3.79 32.75 3.79Q33.44 3.79 33.91 3.47Q34.03 3.39 34.13 3.3Q34.32 3.11 34.45 2.88Q34.65 2.51 34.65 2.03Q34.65 1.57 34.46 1.21Q34.33 0.97 34.13 0.78Q34.05 0.7 33.95 0.63Q33.47 0.29 32.75 0.29Q32 0.29 31.51 0.65Q31.43 0.71 31.36 0.78Q31.17 0.97 31.04 1.2ZM4.91 14.48L11.07 14.48L12.25 18L15.99 18L9.6 0.93L6.35 0.93L0 18L3.73 18L4.91 14.48ZM41.29 5.32L41.29 2.2L37.91 2.2L37.91 5.32L36.05 5.32L36.05 7.8L37.91 7.8L37.91 14.63Q37.94 16.45 38.87 17.35Q39.77 18.23 41.54 18.23Q42.22 18.23 42.87 18.1Q43.23 18.03 43.59 17.92L43.59 15.36Q43.16 15.44 42.59 15.44Q41.83 15.44 41.56 15.14Q41.29 14.83 41.29 14.13L41.29 7.8L43.46 7.8L43.46 5.32L41.29 5.32ZM45.19 8.17Q44.47 9.65 44.47 11.54L44.47 11.69Q44.47 14.4 45.78 16.09Q45.93 16.29 46.1 16.47Q46.59 16.99 47.17 17.36Q48.55 18.23 50.48 18.23Q52.4 18.23 53.78 17.36Q54.36 16.99 54.85 16.47Q55.1 16.19 55.32 15.89Q56.48 14.25 56.48 11.78L56.46 10.92Q56.3 8.68 55.15 7.22Q54.92 6.92 54.65 6.65Q54.19 6.21 53.67 5.9Q52.31 5.08 50.46 5.08Q48.77 5.08 47.46 5.79Q47.37 5.84 47.29 5.89Q46.76 6.2 46.32 6.62Q45.64 7.27 45.19 8.17ZM10.12 11.63L5.85 11.63L7.98 5.25L10.12 11.63ZM31.05 18L34.45 18L34.45 5.32L31.05 5.32L31.05 18ZM48.53 14.54Q47.85 13.59 47.85 11.78Q47.85 9.76 48.53 8.79Q48.83 8.36 49.24 8.12Q49.76 7.82 50.46 7.82Q51.16 7.82 51.68 8.13Q52.1 8.37 52.4 8.8Q53.09 9.77 53.09 11.54Q53.09 13.61 52.4 14.56Q52.1 14.97 51.69 15.2Q51.17 15.5 50.48 15.5Q49.73 15.5 49.19 15.17Q48.81 14.93 48.53 14.54ZM24.79 8.72Q25.4 9.6 25.4 11.53Q25.4 13.11 25.16 13.88Q24.88 14.73 24.31 15.13Q23.78 15.5 23 15.5Q22.04 15.5 21.44 15.04Q21.01 14.72 20.75 14.16L20.75 9.16Q21 8.61 21.42 8.29Q22.02 7.83 22.98 7.83Q23.74 7.83 24.26 8.19Q24.57 8.39 24.79 8.72Z" fill="#0A143A" fill-opacity="1.000000" fill-rule="evenodd"/>
</svg>
